<?xml version="1.0" encoding="UTF-8"?>
<!DOCTYPE svg PUBLIC "-//W3C//DTD SVG 1.1//EN" "http://www.w3.org/Graphics/SVG/1.1/DTD/svg11.dtd">
<svg xmlns="http://www.w3.org/2000/svg" version="1.1" width="2048px" height="2048px" style="shape-rendering:geometricPrecision; text-rendering:geometricPrecision; image-rendering:optimizeQuality; fill-rule:evenodd; clip-rule:evenodd" xmlns:xlink="http://www.w3.org/1999/xlink">
<g><path style="opacity:0.998" fill="#1ed75f" d="M 988.5,2.5 C 1267.15,-2.72573 1509.49,87.1076 1715.5,272C 1894.04,439.207 2000.87,644.707 2036,888.5C 2067.25,1145.8 2011.58,1382.14 1869,1597.5C 1725.83,1803.75 1532.99,1941.25 1290.5,2010C 1075.33,2065.83 863.664,2054.83 655.5,1977C 433.188,1888.34 261.021,1741.18 139,1535.5C 21.0306,1326.97 -20.636,1103.97 14,866.5C 53.4083,630.801 159.908,431.968 333.5,270C 519.286,103.168 737.619,14.0015 988.5,2.5 Z M 818.5,543.5 C 1014.67,538.426 1207.67,560.593 1397.5,610C 1492.83,635.551 1584.49,670.551 1672.5,715C 1693.32,725.908 1713.66,737.575 1733.5,750C 1768.69,780.237 1778.85,817.404 1764,861.5C 1743.99,903.148 1710.82,922.648 1664.5,920C 1654.8,918.576 1645.47,915.909 1636.5,912C 1543.61,857.901 1444.95,817.568 1340.5,791C 1168.88,747.412 994.544,728.412 817.5,734C 685.614,736.555 556.281,755.888 429.5,792C 382.825,797.082 348.658,778.915 327,737.5C 311.922,699.371 317.589,664.704 344,633.5C 354.63,622.549 367.13,614.383 381.5,609C 480.225,579.855 580.892,560.855 683.5,552C 728.584,547.978 773.584,545.145 818.5,543.5 Z M 822.5,894.5 C 1013.1,891.465 1198.1,921.965 1377.5,986C 1455.59,1014.38 1529.59,1050.71 1599.5,1095C 1626.36,1120.26 1633.86,1150.43 1622,1185.5C 1605,1220.92 1576.84,1237.09 1537.5,1234C 1529.49,1232.75 1521.83,1230.42 1514.5,1227C 1409.3,1163.7 1296.63,1118.36 1176.5,1091C 986.505,1046.86 795.505,1041.86 603.5,1076C 562.364,1084.12 521.698,1094.12 481.5,1106C 446.333,1110.83 418.833,1098.66 399,1069.5C 379.749,1031.59 385.249,997.754 415.5,968C 423.52,961.33 432.52,956.33 442.5,953C 566.674,916.477 693.341,896.977 822.5,894.5 Z M 837.5,1227.5 C 972.379,1224.36 1104.38,1242.19 1233.5,1281C 1320.2,1308.19 1401.87,1345.86 1478.5,1394C 1499.31,1414.12 1505.15,1437.95 1496,1465.5C 1481.8,1495.18 1458.3,1508.02 1425.5,1504C 1417.98,1502.71 1410.98,1500.05 1404.5,1496C 1281.61,1422.04 1148.61,1377.37 1005.5,1362C 881.022,1349.02 757.022,1352.69 633.5,1373C 586.479,1380.92 539.646,1389.75 493,1399.5C 462.069,1396.88 441.736,1380.88 432,1351.5C 426.189,1316.95 439.023,1292.12 470.5,1277C 591.253,1247.72 713.586,1231.22 837.5,1227.5 Z"/></g>
</svg>
